<svg width="48" height="36" viewBox="0 0 48 36" fill="none" xmlns="http://www.w3.org/2000/svg">
<path fill-rule="evenodd" clip-rule="evenodd" d="M33.0083 0.00902234C33.5317 0.0221144 34.2645 0.0744826 34.644 0.126851C35.0235 0.179219 35.6843 0.297047 36.1161 0.395238C36.548 0.493428 37.2546 0.689809 37.6864 0.833821C38.1182 0.971288 38.8576 1.27895 39.3221 1.50152C39.7866 1.73063 40.5587 2.17576 41.0232 2.48996C41.4878 2.80417 42.0374 3.19694 42.2336 3.36059C42.4299 3.53078 42.8683 3.93009 43.2085 4.25739C43.5422 4.57815 43.9871 5.04946 44.1965 5.30475C44.4058 5.56005 44.7722 6.05755 45.0143 6.41758C45.2564 6.77761 45.6686 7.51731 45.9303 8.05408C46.1986 8.5974 46.4995 9.28474 46.6042 9.5924C46.7154 9.90006 46.9052 10.5743 47.0295 11.098C47.1603 11.6217 47.3108 12.3548 47.3697 12.7345C47.4286 13.1142 47.494 13.88 47.5137 14.4365C47.5333 15.006 47.5202 15.8504 47.4744 16.3675C47.4351 16.8716 47.337 17.6506 47.265 18.1022C47.1931 18.5539 47.0033 19.418 46.8463 20.0333C46.6893 20.6486 46.4406 21.4996 46.2902 21.9317C46.1397 22.3637 45.8583 23.0576 45.6621 23.47C45.4658 23.8824 45.1648 24.4584 45.0012 24.7464C44.8377 25.0345 44.4844 25.5974 44.2226 25.9902C43.9609 26.3829 43.3525 27.1816 42.8748 27.7576C42.3972 28.3337 41.7429 29.0668 41.4158 29.3876C41.0887 29.7083 40.4605 30.2778 40.0091 30.6575C39.5576 31.0306 38.7071 31.6656 38.1117 32.0583C37.4312 32.51 36.5938 32.9879 35.8544 33.3545C35.2067 33.6752 34.3954 34.0418 34.0552 34.1793C33.7149 34.3102 33.0476 34.5524 32.583 34.7095C32.1185 34.8666 31.3465 35.0957 30.8819 35.2201C30.4174 35.3444 29.6453 35.5146 29.1808 35.6063C28.7163 35.6979 27.905 35.8223 27.3815 35.8878C26.6226 35.9794 25.9617 36.0056 24.1101 35.9991C22.1277 35.9991 21.6043 35.9794 20.5116 35.8485C19.8115 35.7699 18.8955 35.6456 18.4834 35.5736C18.0712 35.5016 17.3645 35.3706 16.9131 35.279C16.4616 35.1873 15.683 35.0106 15.1792 34.8928C14.6755 34.7749 13.6744 34.5066 12.9547 34.3036C12.235 34.1007 11.2012 33.7734 10.6647 33.5705C10.1282 33.3676 9.43469 33.1057 9.12718 32.9813C8.81967 32.8504 8.27007 32.6082 7.89713 32.4315C7.3868 32.1893 7.19051 32.0518 7.05312 31.8685C6.95497 31.731 6.86337 31.5019 6.85029 31.3579C6.83066 31.2139 6.8372 30.9848 6.86338 30.8539C6.883 30.7099 6.98115 30.5266 7.08583 30.4284C7.19706 30.3106 7.42605 30.2058 7.68777 30.1338C7.92331 30.0684 8.53833 29.9113 9.06175 29.7869C9.58517 29.656 10.318 29.4465 10.6974 29.3156C11.0769 29.1912 11.62 28.9686 11.9079 28.8377C12.1957 28.7002 12.5621 28.4711 12.7192 28.3337C12.8762 28.1962 13.0463 28.0064 13.0921 27.9082C13.1444 27.8034 13.1837 27.6594 13.1837 27.5809C13.1837 27.4958 13.1183 27.3648 13.0398 27.2928C12.9547 27.2143 12.7846 27.1226 12.6603 27.0834C12.536 27.0441 12.3004 26.9983 12.1369 26.9721C11.9733 26.9524 11.1358 26.8935 10.2722 26.8346C9.22532 26.7692 8.64301 26.7037 8.52524 26.6382C8.42056 26.5859 8.28316 26.4484 8.21119 26.3371C8.11959 26.1866 8.08033 26.0033 8.08033 25.748C8.08033 25.5385 8.12613 25.2767 8.17847 25.1719C8.23082 25.0672 8.36167 24.9297 8.4729 24.8774C8.60375 24.8119 8.86547 24.7792 9.27766 24.7792C9.6048 24.7792 10.5273 24.8119 11.319 24.8446C12.1107 24.8839 13.2557 24.9428 13.8707 24.9821C14.4857 25.0148 15.369 25.1065 15.8335 25.1785C16.37 25.257 16.8019 25.3618 17.0112 25.46C17.1944 25.5451 17.4496 25.748 17.587 25.8985C17.7244 26.0556 17.8683 26.3044 17.901 26.4484C17.9403 26.5924 17.9534 26.8281 17.9272 26.9721C17.9076 27.1161 17.8356 27.3518 17.7702 27.4958C17.7048 27.6398 17.5281 27.9147 17.3776 28.1045C17.2337 28.2878 16.8804 28.6413 16.6056 28.877C16.3242 29.1126 15.8728 29.4465 15.6045 29.6101C15.3363 29.7803 14.6297 30.1338 14.0343 30.3957C13.4389 30.664 12.6079 30.9913 12.1892 31.1354C11.7639 31.2728 11.4171 31.4234 11.4171 31.4561C11.4171 31.4888 11.4957 31.5543 11.6003 31.5936C11.6985 31.6329 12.392 31.8227 13.151 32.0125C13.9099 32.2089 15.1858 32.5166 15.9971 32.6933C16.8084 32.8766 17.9141 33.0926 18.4506 33.1843C18.9937 33.2759 19.7396 33.3937 20.119 33.4461C20.4985 33.505 21.1921 33.577 21.6566 33.6163C22.1211 33.649 23.2203 33.6818 24.0971 33.6818C24.9672 33.6818 26.0533 33.649 26.5179 33.6098C26.9759 33.577 27.7348 33.4854 28.1994 33.4134C28.6639 33.3414 29.521 33.1646 30.0968 33.0272C30.6725 32.8831 31.5689 32.6278 32.0923 32.4446C32.6158 32.2678 33.3943 31.9732 33.8262 31.79C34.258 31.6001 34.9973 31.2401 35.4619 30.9848C35.9264 30.7295 36.6396 30.3106 37.0321 30.0487C37.4247 29.7869 38.0005 29.3745 38.308 29.1323C38.6155 28.8901 39.1127 28.4646 39.4137 28.1896C39.7212 27.9147 40.2446 27.3845 40.5849 27.0048C40.9316 26.6251 41.4158 26.036 41.671 25.6956C41.9261 25.3552 42.3383 24.7333 42.5869 24.3209C42.8356 23.9085 43.2151 23.2147 43.4179 22.7826C43.6272 22.3506 43.9544 21.5127 44.1507 20.917C44.3535 20.3213 44.6021 19.4376 44.7134 18.9532C44.818 18.4688 44.962 17.8077 45.0209 17.4804C45.0863 17.0941 45.1386 16.3675 45.1583 15.3856C45.1844 14.4365 45.1648 13.6771 45.119 13.3236C45.0797 13.016 44.9751 12.4465 44.8835 12.0472C44.7919 11.6544 44.6283 11.0325 44.5105 10.6725C44.3993 10.3125 44.0852 9.5924 43.8235 9.06872C43.5618 8.54503 43.1496 7.83806 42.9075 7.49767C42.6589 7.15728 42.1682 6.57468 41.8084 6.20156C41.4485 5.82189 40.9316 5.33748 40.6634 5.12147C40.3951 4.90545 39.911 4.55196 39.5838 4.33594C39.2567 4.12647 38.6678 3.79262 38.2753 3.60279C37.8827 3.41295 37.2153 3.15111 36.8031 3.02019C36.3909 2.89582 35.6647 2.71908 35.2001 2.62743C34.7356 2.53579 33.9505 2.43105 33.4663 2.39177C32.8055 2.33286 32.4064 2.33286 31.896 2.39177C31.5166 2.43105 30.9604 2.5096 30.6529 2.56197C30.3454 2.61434 29.8351 2.72562 29.5079 2.81727C29.1808 2.90236 28.6574 3.07256 28.3302 3.19694C28.0031 3.32131 27.5058 3.53733 27.218 3.68134C26.9301 3.8319 26.387 4.15265 26.0075 4.40795C25.6281 4.66324 24.9803 5.16074 24.5681 5.52077C24.1559 5.8808 23.5802 6.43067 23.2923 6.75143C23.0044 7.07218 22.18 7.94935 21.4603 8.70214C20.7406 9.45493 19.8704 10.3059 19.5302 10.5939C19.19 10.8754 18.5422 11.3533 18.0908 11.6544C17.6393 11.9555 16.9327 12.381 16.5205 12.597C16.1083 12.813 15.4606 13.1076 15.0811 13.2582C14.7016 13.4153 14.1913 13.6051 13.9361 13.6968C13.681 13.7819 13.1379 13.939 12.7257 14.0437C12.3135 14.1419 11.6789 14.2663 11.319 14.3055C10.9592 14.3448 10.5993 14.3906 10.5208 14.4103C10.4357 14.4234 10.3703 14.4692 10.3703 14.5019C10.3703 14.5412 10.6058 14.7965 10.8937 15.078C11.1882 15.3529 11.6527 15.7457 11.9275 15.942C12.2023 16.1384 12.6995 16.4395 13.0201 16.6032C13.3407 16.7734 13.8314 16.9829 14.0997 17.0745C14.3679 17.1727 15.0157 17.3494 15.5391 17.4738C16.0625 17.5982 16.8869 17.7749 17.3711 17.8666C17.8552 17.9582 18.5946 18.076 19.0068 18.135C19.419 18.1873 19.8573 18.2528 19.9751 18.2659C20.106 18.2855 20.1845 18.3379 20.1845 18.3968C20.1845 18.4492 20.0405 18.711 19.8639 18.9728C19.6872 19.2281 19.3405 19.6602 19.0984 19.9286C18.8497 20.197 18.3983 20.5963 18.0908 20.8254C17.7833 21.0545 17.2533 21.3883 16.9131 21.5651C16.5729 21.7418 16.0429 21.984 15.7354 22.0953C15.4279 22.2066 14.8979 22.3702 14.5577 22.4619C14.2175 22.547 13.6286 22.6648 13.2491 22.7237C12.6799 22.8154 11.8686 22.8415 8.60375 22.8612C5.86233 22.8808 4.56032 22.8677 4.37058 22.8219C4.21355 22.7826 3.99764 22.6714 3.88641 22.5732C3.77518 22.4684 3.64433 22.272 3.58544 22.128C3.52656 21.9775 3.49384 21.7287 3.51347 21.5323C3.52656 21.3032 3.58544 21.133 3.7163 20.9628C3.81444 20.8319 3.97147 20.6814 4.07615 20.629C4.22009 20.557 5.0314 20.5308 8.4729 20.5046C12.3855 20.4784 12.7453 20.4653 13.4127 20.341C13.8118 20.2624 14.3679 20.1184 14.6493 20.0202C14.9372 19.922 15.1792 19.8042 15.1923 19.7715C15.2054 19.7387 14.7671 19.5554 14.2175 19.3722C13.6679 19.1889 12.778 18.8419 12.235 18.5997C11.5087 18.279 11.0377 18.0106 10.4357 17.5916C9.99082 17.2774 9.35617 16.7603 9.02903 16.433C8.7019 16.1122 8.27007 15.5951 8.06725 15.2874C7.86442 14.9798 7.65505 14.5936 7.59617 14.4234C7.53728 14.2466 7.49148 13.952 7.49148 13.7688C7.49148 13.52 7.54382 13.3236 7.66814 13.0618C7.79899 12.8065 7.93639 12.6559 8.14576 12.525C8.30933 12.4203 8.59067 12.3155 8.76732 12.2828C8.95052 12.2501 9.57863 12.1715 10.174 12.1126C10.7694 12.0537 11.5349 11.949 11.8751 11.8835C12.2154 11.8115 12.8173 11.6478 13.2164 11.5169C13.6155 11.386 14.2305 11.1504 14.5904 10.9932C14.9502 10.8296 15.526 10.5416 15.8662 10.3517C16.2065 10.1554 16.8149 9.7495 17.2206 9.44839C17.6197 9.15382 18.2674 8.62359 18.6535 8.28319C19.0395 7.9428 19.9293 7.02636 20.6359 6.25393C21.3425 5.4815 22.1211 4.64361 22.3763 4.4014C22.6315 4.15265 23.0829 3.74025 23.3904 3.47841C23.6979 3.22312 24.241 2.81727 24.6008 2.57506C24.9607 2.33286 25.5954 1.96628 26.0075 1.75026C26.4197 1.53425 27.0413 1.23313 27.3815 1.08912C27.7218 0.945104 28.3695 0.722539 28.8209 0.598164C29.2724 0.47379 29.9659 0.310139 30.3585 0.231587C30.7511 0.159581 31.3007 0.0744826 31.5689 0.0417525C31.8372 0.00247632 32.4849 -0.0106157 33.0083 0.00902234ZM33.2897 9.72332C33.4925 9.72332 33.7673 9.76914 33.8916 9.82151C34.0159 9.87388 34.2449 10.031 34.4019 10.175C34.5524 10.3125 34.7487 10.5808 34.8403 10.7772C34.9842 11.0914 35.0039 11.2158 35.0039 11.9162C35.0039 12.6232 34.9842 12.741 34.8338 13.0618C34.7422 13.2582 34.5524 13.5527 34.4085 13.7098C34.2711 13.867 34.0159 14.0633 33.8458 14.1484C33.6626 14.2401 33.414 14.3055 33.2569 14.3055C33.0803 14.3055 32.8447 14.2401 32.6223 14.1288C32.426 14.0241 32.1839 13.8408 32.0792 13.7164C31.9811 13.592 31.8306 13.3564 31.7586 13.1927C31.6801 13.0291 31.5885 12.7083 31.5493 12.4726C31.5035 12.1715 31.5035 11.9228 31.5558 11.6217C31.6016 11.386 31.7128 11.0325 31.811 10.8361C31.9091 10.6398 32.0923 10.3648 32.2232 10.2208C32.3475 10.0834 32.5569 9.91315 32.6812 9.84769C32.8251 9.77569 33.0541 9.72987 33.2897 9.72332ZM40.683 10.0506C40.8139 10.0506 41.0363 10.1095 41.1737 10.175C41.3046 10.247 41.5074 10.3976 41.6252 10.5219C41.7364 10.6398 41.9065 10.8885 41.9916 11.0653C42.0832 11.2485 42.1878 11.5562 42.2336 11.7526C42.286 11.9686 42.3056 12.309 42.2794 12.6036C42.2598 12.872 42.1878 13.2582 42.1093 13.4546C42.0374 13.6509 41.8803 13.9455 41.756 14.1092C41.6382 14.2728 41.4092 14.4692 41.2457 14.5477C41.0821 14.6328 40.8335 14.6983 40.683 14.6983C40.526 14.6983 40.3035 14.659 40.1923 14.6132C40.0745 14.5608 39.8521 14.3775 39.695 14.2008C39.5446 14.0241 39.3679 13.7491 39.3156 13.5855C39.2567 13.4218 39.1978 13.0094 39.1782 12.669C39.152 12.1912 39.1651 11.9555 39.2567 11.6544C39.3156 11.4384 39.4399 11.1176 39.5315 10.9343C39.6165 10.7576 39.7539 10.535 39.8324 10.4565C39.9109 10.3714 40.0811 10.247 40.2054 10.175C40.3297 10.1095 40.5456 10.0572 40.683 10.0506ZM33.6506 19.0075C33.8338 19.001 33.9515 19.073 34.2983 19.4003C34.5338 19.6228 34.8741 19.8781 35.0507 19.9632C35.2339 20.0483 35.5283 20.1465 35.705 20.1727C35.8882 20.2054 36.2284 20.2054 36.477 20.1727C36.7191 20.1465 37.0266 20.068 37.164 19.9959C37.2949 19.9305 37.5239 19.793 37.6678 19.7014C37.8576 19.5705 37.9753 19.5377 38.0931 19.5639C38.1847 19.5901 38.3352 19.6817 38.4333 19.7799C38.5315 19.8781 38.6296 20.0352 38.6492 20.14C38.6689 20.2382 38.6427 20.4149 38.5969 20.5327C38.5446 20.644 38.381 20.8535 38.237 20.9909C38.0866 21.1219 37.8183 21.3052 37.6351 21.3968C37.4585 21.4884 37.1248 21.6063 36.9023 21.6586C36.6733 21.711 36.3069 21.7568 36.0845 21.7568C35.8555 21.7568 35.5152 21.7241 35.3321 21.6848C35.1423 21.6455 34.7497 21.4884 34.4684 21.3379C34.1805 21.1939 33.7814 20.9058 33.572 20.7095C33.3692 20.5131 33.1533 20.2382 33.0944 20.1072C33.0355 19.9698 32.9897 19.7668 32.9963 19.6556C33.0006 19.5203 33.0748 19.3784 33.2187 19.2301C33.3758 19.0664 33.4935 19.0075 33.6506 19.0075ZM3.14053 26.8084C5.56136 26.8019 5.56136 26.8019 5.79036 26.9524C5.91467 27.0375 6.0717 27.2077 6.13058 27.3321C6.19601 27.4565 6.24835 27.6725 6.24835 27.81C6.24835 27.9409 6.2091 28.1504 6.1633 28.2682C6.11095 28.3795 5.9801 28.5562 5.86887 28.661C5.7511 28.7592 5.54828 28.8704 5.41742 28.9032C5.26694 28.9424 4.29861 28.9621 2.97696 28.9555C0.935617 28.9359 0.765505 28.9293 0.529965 28.805C0.392567 28.733 0.215912 28.5824 0.137398 28.4777C0.0327139 28.3271 0 28.1831 0 27.8558C0 27.5154 0.0327139 27.3845 0.157027 27.2077C0.23554 27.0899 0.399109 26.9524 0.516879 26.9001C0.673906 26.8346 1.26276 26.815 3.14053 26.8084Z" fill="white" fill-opacity="0.99"/>
</svg>
