<svg width="94" height="45" viewBox="0 0 94 45" fill="none" xmlns="http://www.w3.org/2000/svg">
<path d="M1.64 31.36C1.72 31.0667 1.84 30.9467 2 31C2.18667 31.0267 2.36 31.0933 2.52 31.2C2.97333 31.4133 3.49333 31.6133 4.08 31.8C4.69333 31.96 5.32 32.0933 5.96 32.2C6.6 32.28 7.17333 32.32 7.68 32.32C8.21333 32.32 8.69333 32.2667 9.12 32.16C9.57333 32.0267 9.93333 31.8267 10.2 31.56C10.4667 31.2933 10.6 30.9467 10.6 30.52C10.6267 29.9333 10.36 29.4933 9.8 29.2C9.26667 28.88 8.32 28.5733 6.96 28.28C6.10667 28.0933 5.22667 27.8267 4.32 27.48C3.44 27.1067 2.70667 26.56 2.12 25.84C1.53333 25.0933 1.24 24.12 1.24 22.92C1.24 21.56 1.58667 20.4533 2.28 19.6C2.97333 18.72 3.86667 18.0533 4.96 17.6C6.08 17.1467 7.26667 16.92 8.52 16.92C9.50667 16.92 10.5867 17.0667 11.76 17.36C12.9333 17.6533 13.9067 18.0267 14.68 18.48C14.92 18.6133 15.04 18.7333 15.04 18.84C15.0667 18.9467 15.0533 19.0933 15 19.28L14.04 21.88C13.96 22.2 13.7067 22.28 13.28 22.12C12.6933 21.7733 11.9733 21.4533 11.12 21.16C10.2667 20.8667 9.4 20.72 8.52 20.72C7.90667 20.72 7.36 20.88 6.88 21.2C6.42667 21.4933 6.2 21.88 6.2 22.36C6.2 22.9467 6.46667 23.3733 7 23.64C7.53333 23.9067 8.30667 24.1467 9.32 24.36C10.0667 24.52 10.7867 24.7067 11.48 24.92C12.1733 25.1067 12.8133 25.4 13.4 25.8C13.9867 26.1733 14.4533 26.6933 14.8 27.36C15.1467 28 15.32 28.84 15.32 29.88C15.32 31.08 15.0933 32.0933 14.64 32.92C14.1867 33.72 13.5733 34.36 12.8 34.84C12.0533 35.32 11.2267 35.6667 10.32 35.88C9.44 36.0933 8.56 36.2 7.68 36.2C7.2 36.2 6.57333 36.1467 5.8 36.04C5.02667 35.9333 4.24 35.76 3.44 35.52C2.64 35.28 1.96 34.96 1.4 34.56C1.29333 34.5067 1.2 34.44 1.12 34.36C1.06667 34.2533 1.05333 34.12 1.08 33.96L1.64 31.36ZM16.9263 35.52C16.9263 30.96 16.9263 26.4 16.9263 21.84C16.9263 17.28 16.9263 12.72 16.9263 8.16C16.9263 7.84 17.1129 7.68 17.4863 7.68C18.1796 7.68 18.8596 7.68 19.5263 7.68C20.2196 7.68 20.8996 7.68 21.5663 7.68C21.9129 7.68 22.0863 7.84 22.0863 8.16C22.0863 9.62667 22.0863 11.0933 22.0863 12.56C22.0863 14.0267 22.0863 15.48 22.0863 16.92C22.0863 17.1333 22.1396 17.2667 22.2463 17.32C22.3529 17.3467 22.4596 17.3333 22.5663 17.28C22.8063 17.2 23.2063 17.1067 23.7663 17C24.3529 16.8933 24.8996 16.84 25.4063 16.84C26.6329 16.84 27.6729 17.0267 28.5263 17.4C29.4063 17.7467 30.1129 18.2933 30.6463 19.04C31.2063 19.7867 31.6196 20.7467 31.8863 21.92C32.1796 23.0933 32.3529 24.5067 32.4063 26.16C32.4329 27.28 32.4196 28.4267 32.3663 29.6C32.3129 30.7467 32.2329 31.8533 32.1263 32.92C32.0196 33.96 31.8996 34.8533 31.7663 35.6C31.7396 35.76 31.6596 35.8667 31.5263 35.92C31.4196 35.9733 31.2729 36 31.0863 36C30.4463 36 29.8196 36 29.2063 36C28.5929 36 27.9796 36 27.3663 36C26.9396 36 26.6996 35.96 26.6463 35.88C26.6196 35.8 26.6463 35.52 26.7263 35.04C26.8596 33.9733 26.9663 32.8533 27.0463 31.68C27.1263 30.48 27.1796 29.2933 27.2063 28.12C27.2329 26.9733 27.2063 25.9333 27.1263 25C27.0463 24.0667 26.8863 23.28 26.6463 22.64C26.4329 21.9733 26.1129 21.48 25.6863 21.16C25.2863 20.8133 24.7529 20.64 24.0863 20.64C23.8729 20.64 23.6329 20.6667 23.3663 20.72C23.0996 20.7733 22.8463 20.84 22.6063 20.92C22.4463 20.9467 22.3129 21.04 22.2063 21.2C22.1263 21.3333 22.0863 21.52 22.0863 21.76V35.52C22.0863 35.84 21.9129 36 21.5663 36H17.4863C17.1129 36 16.9263 35.84 16.9263 35.52ZM39.8362 11.96C39.8362 12.76 39.6629 13.3733 39.3162 13.8C38.9696 14.2 38.2496 14.4 37.1562 14.4C36.1162 14.4 35.3962 14.2 34.9962 13.8C34.6229 13.3733 34.4362 12.76 34.4362 11.96C34.4362 11.2667 34.6229 10.7067 34.9962 10.28C35.3962 9.82667 36.1162 9.6 37.1562 9.6C38.3029 9.6 39.0362 9.82667 39.3562 10.28C39.6762 10.7067 39.8362 11.2667 39.8362 11.96ZM39.7162 35.52C39.7162 35.84 39.5429 36 39.1962 36H35.0762C34.7562 36 34.5962 35.84 34.5962 35.52V17.6C34.5962 17.28 34.7562 17.12 35.0762 17.12H39.1962C39.5429 17.12 39.7162 17.28 39.7162 17.6V35.52ZM42.2328 39.92C42.1261 38.96 42.0328 37.4667 41.9528 35.44C41.8995 33.4133 41.8861 30.8133 41.9128 27.64C41.9128 26.7333 41.9261 25.7333 41.9528 24.64C41.9795 23.52 42.0195 22.44 42.0728 21.4C42.1528 20.36 42.2595 19.5467 42.3928 18.96C42.4461 18.6667 42.5528 18.44 42.7128 18.28C42.8728 18.0933 43.2328 17.8933 43.7928 17.68C44.3528 17.4933 45.1795 17.2933 46.2728 17.08C47.3928 16.8667 48.6328 16.76 49.9928 16.76C52.6061 16.76 54.6328 17.52 56.0728 19.04C57.5395 20.5333 58.2728 22.8933 58.2728 26.12C58.2728 27.4533 58.1528 28.6533 57.9128 29.72C57.6995 30.76 57.3661 31.68 56.9128 32.48C56.4595 33.2533 55.9261 33.8933 55.3128 34.4C54.7261 34.9067 54.0595 35.2933 53.3128 35.56C52.8328 35.7733 52.2728 35.9333 51.6328 36.04C50.9928 36.1733 50.3528 36.24 49.7128 36.24C49.0728 36.2667 48.4995 36.24 47.9928 36.16C47.7528 36.1333 47.5661 36.1067 47.4328 36.08C47.2995 36.08 47.2328 36.1733 47.2328 36.36C47.2328 36.5467 47.2195 36.84 47.1928 37.24C47.1928 37.64 47.2061 38.04 47.2328 38.44C47.2595 38.84 47.2728 39.1467 47.2728 39.36C47.3261 39.7067 47.3395 39.9467 47.3128 40.08C47.3128 40.24 47.1128 40.32 46.7128 40.32H42.9128C42.6995 40.32 42.5261 40.2933 42.3928 40.24C42.2861 40.1867 42.2328 40.08 42.2328 39.92ZM47.1528 30.8C47.1528 30.9867 47.1795 31.12 47.2328 31.2C47.2861 31.2533 47.3795 31.2933 47.5128 31.32C47.8595 31.4533 48.2595 31.56 48.7128 31.64C49.1661 31.72 49.5528 31.76 49.8728 31.76C50.2195 31.76 50.5661 31.6933 50.9128 31.56C51.2861 31.4267 51.6328 31.1733 51.9528 30.8C52.2995 30.4 52.5661 29.8267 52.7528 29.08C52.9661 28.3333 53.0728 27.3333 53.0728 26.08C53.0728 24.0267 52.7795 22.6133 52.1928 21.84C51.6061 21.0667 50.8461 20.68 49.9128 20.68C49.4861 20.68 49.0595 20.72 48.6328 20.8C48.2061 20.88 47.8461 20.9733 47.5528 21.08C47.4995 21.1333 47.4461 21.2 47.3928 21.28C47.3395 21.36 47.3128 21.4667 47.3128 21.6C47.2861 22.16 47.2595 22.76 47.2328 23.4C47.2328 24.04 47.2195 24.6933 47.1928 25.36C47.1928 26 47.1795 26.6533 47.1528 27.32C47.1528 27.96 47.1528 28.5867 47.1528 29.2C47.1528 29.7867 47.1528 30.32 47.1528 30.8ZM60.4469 39.92C60.3402 38.96 60.2469 37.4667 60.1669 35.44C60.1135 33.4133 60.1002 30.8133 60.1269 27.64C60.1269 26.7333 60.1402 25.7333 60.1669 24.64C60.1935 23.52 60.2335 22.44 60.2869 21.4C60.3669 20.36 60.4735 19.5467 60.6069 18.96C60.6602 18.6667 60.7669 18.44 60.9269 18.28C61.0869 18.0933 61.4469 17.8933 62.0069 17.68C62.5669 17.4933 63.3935 17.2933 64.4869 17.08C65.6069 16.8667 66.8469 16.76 68.2069 16.76C70.8202 16.76 72.8469 17.52 74.2869 19.04C75.7535 20.5333 76.4869 22.8933 76.4869 26.12C76.4869 27.4533 76.3669 28.6533 76.1269 29.72C75.9135 30.76 75.5802 31.68 75.1269 32.48C74.6735 33.2533 74.1402 33.8933 73.5269 34.4C72.9402 34.9067 72.2735 35.2933 71.5269 35.56C71.0469 35.7733 70.4869 35.9333 69.8469 36.04C69.2069 36.1733 68.5669 36.24 67.9269 36.24C67.2869 36.2667 66.7135 36.24 66.2069 36.16C65.9669 36.1333 65.7802 36.1067 65.6469 36.08C65.5135 36.08 65.4469 36.1733 65.4469 36.36C65.4469 36.5467 65.4335 36.84 65.4069 37.24C65.4069 37.64 65.4202 38.04 65.4469 38.44C65.4735 38.84 65.4869 39.1467 65.4869 39.36C65.5402 39.7067 65.5535 39.9467 65.5269 40.08C65.5269 40.24 65.3269 40.32 64.9269 40.32H61.1269C60.9135 40.32 60.7402 40.2933 60.6069 40.24C60.5002 40.1867 60.4469 40.08 60.4469 39.92ZM65.3669 30.8C65.3669 30.9867 65.3935 31.12 65.4469 31.2C65.5002 31.2533 65.5935 31.2933 65.7269 31.32C66.0735 31.4533 66.4735 31.56 66.9269 31.64C67.3802 31.72 67.7669 31.76 68.0869 31.76C68.4335 31.76 68.7802 31.6933 69.1269 31.56C69.5002 31.4267 69.8469 31.1733 70.1669 30.8C70.5135 30.4 70.7802 29.8267 70.9669 29.08C71.1802 28.3333 71.2869 27.3333 71.2869 26.08C71.2869 24.0267 70.9935 22.6133 70.4069 21.84C69.8202 21.0667 69.0602 20.68 68.1269 20.68C67.7002 20.68 67.2735 20.72 66.8469 20.8C66.4202 20.88 66.0602 20.9733 65.7669 21.08C65.7135 21.1333 65.6602 21.2 65.6069 21.28C65.5535 21.36 65.5269 21.4667 65.5269 21.6C65.5002 22.16 65.4735 22.76 65.4469 23.4C65.4469 24.04 65.4335 24.6933 65.4069 25.36C65.4069 26 65.3935 26.6533 65.3669 27.32C65.3669 27.96 65.3669 28.5867 65.3669 29.2C65.3669 29.7867 65.3669 30.32 65.3669 30.8ZM81.4209 31.76C80.9143 30.7467 80.4343 29.68 79.9809 28.56C79.5543 27.4133 79.1543 26.24 78.7809 25.04C78.4076 23.84 78.0876 22.64 77.8209 21.44C77.5543 20.2133 77.3143 19.04 77.1009 17.92C77.0209 17.3867 77.1809 17.12 77.5809 17.12H81.5809C81.8743 17.12 82.0743 17.2 82.1809 17.36C82.3143 17.4933 82.4076 17.76 82.4609 18.16C82.5143 18.56 82.5943 19.08 82.7009 19.72C82.8076 20.3333 82.9409 21.0133 83.1009 21.76C83.2609 22.48 83.4343 23.24 83.6209 24.04C83.8076 24.8133 84.0076 25.56 84.2209 26.28C84.4609 27 84.6743 27.6533 84.8609 28.24C84.9676 28.4267 85.0743 28.52 85.1809 28.52C85.2876 28.52 85.3543 28.4267 85.3809 28.24C85.6209 27.4933 85.8609 26.6933 86.1009 25.84C86.3409 24.9867 86.5809 24.1067 86.8209 23.2C87.0609 22.2933 87.2743 21.3867 87.4609 20.48C87.6476 19.5733 87.8209 18.6933 87.9809 17.84C88.0343 17.5733 88.1009 17.3867 88.1809 17.28C88.2876 17.1733 88.4876 17.12 88.7809 17.12H92.2209C92.4609 17.12 92.6476 17.1733 92.7809 17.28C92.9409 17.36 92.9809 17.5867 92.9009 17.96C92.7409 19.0267 92.5409 20.0533 92.3009 21.04C92.0609 22 91.7943 22.9867 91.5009 24C91.2076 24.9867 90.8476 26.1067 90.4209 27.36C90.1276 28.1333 89.7809 29.0933 89.3809 30.24C88.9809 31.36 88.4743 32.5333 87.8609 33.76C87.2476 34.9867 86.5143 36.12 85.6609 37.16C84.8343 38.2 83.8476 39.0533 82.7009 39.72C81.5809 40.3867 80.3009 40.72 78.8609 40.72C78.1409 40.72 77.5276 40.6667 77.0209 40.56C76.5409 40.48 76.1276 40.36 75.7809 40.2C75.2209 39.9333 75.0743 39.5467 75.3409 39.04L76.3009 37.16C76.4343 36.92 76.5543 36.8 76.6609 36.8C76.7676 36.8 76.9143 36.8267 77.1009 36.88C77.5543 36.9867 78.0343 36.9867 78.5409 36.88C79.0743 36.8 79.5543 36.64 79.9809 36.4C80.4609 36.1333 80.8343 35.8533 81.1009 35.56C81.3943 35.2667 81.6076 34.96 81.7409 34.64C81.9543 34.1867 82.0076 33.7067 81.9009 33.2C81.8209 32.6933 81.6609 32.2133 81.4209 31.76Z" fill="#0f172a"/>
</svg>
