<svg width="181" height="22" viewBox="0 0 181 22" fill="none" xmlns="http://www.w3.org/2000/svg">
<path d="M5.21599 21.184C3.80799 21.184 2.71999 20.9813 1.95199 20.576C1.20533 20.1706 0.693327 19.616 0.415994 18.912C0.138661 18.1866 -6.07967e-06 17.3546 -6.07967e-06 16.416V11.584C-6.07967e-06 10.7306 0.138661 9.95196 0.415994 9.24796C0.714661 8.52263 1.23733 7.94663 1.98399 7.51996C2.73066 7.07196 3.80799 6.84796 5.21599 6.84796H11.84C13.504 6.84796 14.7733 7.05063 15.648 7.45596C16.544 7.83996 17.152 8.39463 17.472 9.11996C17.8133 9.82396 17.984 10.6453 17.984 11.584V15.68H12.384C10.464 15.68 9.00266 15.6373 7.99999 15.552C7.01866 15.4666 6.32533 15.4133 5.91999 15.392V15.872C5.89866 16.7253 6.41066 17.152 7.45599 17.152H8.44799C10.1547 17.152 11.7333 17.12 13.184 17.056C14.6347 16.9706 15.712 16.896 16.416 16.832L18.336 19.872C18.336 20.0853 18.1547 20.288 17.792 20.48C17.4293 20.672 16.7893 20.8426 15.872 20.992C14.976 21.12 13.696 21.184 12.032 21.184H5.21599ZM5.91999 12.608H12.064V12.16C12.064 11.7333 12.0213 11.4346 11.936 11.264C11.872 11.0933 11.648 10.9866 11.264 10.944C10.88 10.9013 10.2293 10.88 9.31199 10.88H7.45599C6.43199 10.88 5.91999 11.3066 5.91999 12.16V12.608ZM24.7067 21.184C22.8294 21.184 21.4854 20.832 20.6747 20.128C19.8641 19.424 19.4587 18.2506 19.4587 16.608C19.4587 15.0933 19.8747 13.9946 20.7067 13.312C21.5601 12.6293 22.8934 12.288 24.7067 12.288H25.6987C26.8934 12.288 28.0347 12.3306 29.1227 12.416C30.2107 12.5013 31.1494 12.5866 31.9387 12.672V12.16C31.9387 11.8613 31.8747 11.5733 31.7467 11.296C31.6187 11.0186 31.1707 10.88 30.4027 10.88H28.8027C26.4774 10.88 24.6854 10.9226 23.4267 11.008C22.1681 11.072 21.3894 11.136 21.0907 11.2L20.7387 7.80796C20.7387 7.59463 21.1121 7.42396 21.8587 7.29596C22.6054 7.14663 23.6294 7.03996 24.9307 6.97596C26.2321 6.89063 27.7147 6.84796 29.3787 6.84796H32.5787C33.9867 6.84796 35.0641 7.06129 35.8107 7.48796C36.5574 7.89329 37.0694 8.44796 37.3467 9.15196C37.6241 9.85596 37.7627 10.6666 37.7627 11.584V21.184H33.2187L31.9707 20.544C31.4587 20.6506 30.6374 20.7893 29.5067 20.96C28.3974 21.1093 27.1174 21.184 25.6667 21.184H24.7067ZM26.5627 17.408H30.9787C31.4481 17.408 31.7254 17.3653 31.8107 17.28C31.8961 17.1946 31.9387 16.928 31.9387 16.48V15.36H26.5627C26.1574 15.36 25.8587 15.4346 25.6667 15.584C25.4747 15.7333 25.3787 16.0213 25.3787 16.448C25.3787 16.8533 25.4747 17.12 25.6667 17.248C25.8587 17.3546 26.1574 17.408 26.5627 17.408ZM39.8387 21.184V6.84796H44.3827L45.5987 7.48796C46.5801 6.84796 47.8814 6.52796 49.5027 6.52796C50.5694 6.52796 51.5081 6.64529 52.3187 6.87996C53.1294 7.09329 53.7801 7.32796 54.2707 7.58396C54.7827 7.83996 55.1027 8.02129 55.2307 8.12796L53.6307 12.288C53.4174 12.1386 53.0121 11.936 52.4147 11.68C51.8387 11.424 51.1561 11.1893 50.3667 10.976C49.5774 10.7413 48.7454 10.624 47.8707 10.624H47.5187C46.9214 10.624 46.4627 10.7306 46.1427 10.944C45.8227 11.136 45.6627 11.5733 45.6627 12.256V21.184H39.8387ZM55.8637 21.184V6.84796H60.5037L61.7837 7.48796C62.6797 7.31729 63.7571 7.16796 65.0157 7.03996C66.2957 6.91196 67.4904 6.84796 68.5997 6.84796H70.1997C71.2664 6.84796 72.0877 6.99729 72.6637 7.29596C73.2397 7.59463 73.6451 7.96796 73.8797 8.41596C74.1357 8.86396 74.2851 9.32263 74.3277 9.79196C74.3917 10.24 74.4237 10.624 74.4237 10.944V21.184H68.5677V12.16C68.5677 11.3066 68.0557 10.88 67.0317 10.88H62.7437C62.3384 10.88 62.0717 10.9226 61.9437 11.008C61.8371 11.072 61.7837 11.264 61.7837 11.584V21.184H55.8637ZM86.713 21.184C84.8357 21.184 83.4917 20.832 82.681 20.128C81.8703 19.424 81.465 18.2506 81.465 16.608C81.465 15.0933 81.881 13.9946 82.713 13.312C83.5663 12.6293 84.8997 12.288 86.713 12.288H87.705C88.8997 12.288 90.041 12.3306 91.129 12.416C92.217 12.5013 93.1557 12.5866 93.945 12.672V12.16C93.945 11.8613 93.881 11.5733 93.753 11.296C93.625 11.0186 93.177 10.88 92.409 10.88H90.809C88.4837 10.88 86.6917 10.9226 85.433 11.008C84.1743 11.072 83.3957 11.136 83.097 11.2L82.745 7.80796C82.745 7.59463 83.1183 7.42396 83.865 7.29596C84.6117 7.14663 85.6357 7.03996 86.937 6.97596C88.2383 6.89063 89.721 6.84796 91.385 6.84796H94.585C95.993 6.84796 97.0703 7.06129 97.817 7.48796C98.5637 7.89329 99.0757 8.44796 99.353 9.15196C99.6303 9.85596 99.769 10.6666 99.769 11.584V21.184H95.225L93.977 20.544C93.465 20.6506 92.6437 20.7893 91.513 20.96C90.4037 21.1093 89.1237 21.184 87.673 21.184H86.713ZM88.569 17.408H92.985C93.4543 17.408 93.7317 17.3653 93.817 17.28C93.9023 17.1946 93.945 16.928 93.945 16.48V15.36H88.569C88.1637 15.36 87.865 15.4346 87.673 15.584C87.481 15.7333 87.385 16.0213 87.385 16.448C87.385 16.8533 87.481 17.12 87.673 17.248C87.865 17.3546 88.1637 17.408 88.569 17.408ZM110.892 21.184C109.463 21.184 108.45 21.1093 107.852 20.96C107.255 20.8106 106.956 20.6613 106.956 20.512L108.236 17.152C108.492 17.216 109.25 17.2906 110.508 17.376C111.788 17.44 113.644 17.472 116.076 17.472H118.348C118.882 17.472 119.212 17.4186 119.34 17.312C119.49 17.184 119.564 16.9706 119.564 16.672C119.564 16.3093 119.479 16.0853 119.308 16C119.159 15.8933 118.839 15.84 118.348 15.84H111.852C110.295 15.84 109.09 15.552 108.236 14.976C107.383 14.3786 106.956 13.3226 106.956 11.808V11.168C106.956 10.3786 107.063 9.66396 107.276 9.02396C107.49 8.36263 107.948 7.83996 108.652 7.45596C109.356 7.05063 110.423 6.84796 111.852 6.84796H121.324C122.604 6.84796 123.511 6.92263 124.044 7.07196C124.578 7.22129 124.844 7.37063 124.844 7.51996L124.524 10.912C124.183 10.848 123.319 10.784 121.932 10.72C120.567 10.6346 118.679 10.592 116.268 10.592H113.996C113.463 10.592 113.122 10.656 112.972 10.784C112.844 10.8906 112.78 11.0826 112.78 11.36C112.78 11.6373 112.844 11.84 112.972 11.968C113.122 12.0746 113.463 12.128 113.996 12.128H120.62C122.284 12.128 123.511 12.4906 124.3 13.216C125.09 13.9413 125.484 14.9546 125.484 16.256V16.864C125.484 17.632 125.388 18.3466 125.196 19.008C125.004 19.648 124.567 20.1706 123.884 20.576C123.202 20.9813 122.114 21.184 120.62 21.184H110.892ZM127.715 21.184V3.45596L127.395 0.89596H133.539V21.184H127.715ZM138.996 5.47196C136.841 5.47196 135.764 4.55463 135.764 2.71996C135.764 1.69596 136.03 0.99196 136.564 0.60796C137.118 0.202625 137.929 -4.19617e-05 138.996 -4.19617e-05C140.126 -4.19617e-05 140.948 0.202625 141.46 0.60796C141.993 0.99196 142.26 1.69596 142.26 2.71996C142.26 4.55463 141.172 5.47196 138.996 5.47196ZM136.052 21.184V6.84796H141.876V21.184H136.052ZM149.403 21.184C147.995 21.184 146.907 20.9813 146.139 20.576C145.393 20.1706 144.881 19.616 144.603 18.912C144.326 18.1866 144.187 17.3546 144.187 16.416V11.584C144.187 10.7306 144.326 9.95196 144.603 9.24796C144.902 8.52263 145.425 7.94663 146.171 7.51996C146.918 7.07196 147.995 6.84796 149.403 6.84796H153.499C155.953 6.84796 157.755 6.95463 158.907 7.16796C160.059 7.38129 160.71 7.59463 160.859 7.80796L159.899 11.2C159.451 11.1573 158.641 11.0933 157.467 11.008C156.294 10.9226 155.003 10.88 153.595 10.88H151.643C151.089 10.88 150.694 10.9866 150.459 11.2C150.225 11.4133 150.107 11.7333 150.107 12.16V15.872C150.107 16.2986 150.214 16.6186 150.427 16.832C150.641 17.0453 151.046 17.152 151.643 17.152H153.275C154.854 17.152 156.209 17.12 157.339 17.056C158.491 16.9706 159.334 16.896 159.867 16.832L161.787 19.872C161.787 20.1706 161.254 20.4693 160.187 20.768C159.142 21.0453 157.574 21.184 155.483 21.184H149.403ZM167.335 21.184C165.927 21.184 164.839 20.9813 164.071 20.576C163.324 20.1706 162.812 19.616 162.535 18.912C162.257 18.1866 162.119 17.3546 162.119 16.416V11.584C162.119 10.7306 162.257 9.95196 162.535 9.24796C162.833 8.52263 163.356 7.94663 164.103 7.51996C164.849 7.07196 165.927 6.84796 167.335 6.84796H173.959C175.623 6.84796 176.892 7.05063 177.767 7.45596C178.663 7.83996 179.271 8.39463 179.591 9.11996C179.932 9.82396 180.103 10.6453 180.103 11.584V15.68H174.503C172.583 15.68 171.121 15.6373 170.119 15.552C169.137 15.4666 168.444 15.4133 168.039 15.392V15.872C168.017 16.7253 168.529 17.152 169.575 17.152H170.567C172.273 17.152 173.852 17.12 175.303 17.056C176.753 16.9706 177.831 16.896 178.535 16.832L180.455 19.872C180.455 20.0853 180.273 20.288 179.911 20.48C179.548 20.672 178.908 20.8426 177.991 20.992C177.095 21.12 175.815 21.184 174.151 21.184H167.335ZM168.039 12.608H174.183V12.16C174.183 11.7333 174.14 11.4346 174.055 11.264C173.991 11.0933 173.767 10.9866 173.383 10.944C172.999 10.9013 172.348 10.88 171.431 10.88H169.575C168.551 10.88 168.039 11.3066 168.039 12.16V12.608Z" fill="white"/>
</svg>
