<svg width="150" height="150" viewBox="0 0 150 150" fill="none" xmlns="http://www.w3.org/2000/svg">
<g filter="url(#filter0_d_9_179)">
<path d="M74.5 12C94.9078 12 113.03 21.7821 124.437 36.9121L66.9141 136.543C35.974 132.799 12 106.45 12 74.5C12 39.9822 39.9822 12 74.5 12Z" fill="white" fill-opacity="0.2"/>
</g>
<g filter="url(#filter1_d_9_179)">
<path d="M74.5 12C94.9078 12 113.03 21.7821 124.437 36.9121L43 128.5C33.5 123 12 106.45 12 74.5C12 39.9822 39.9822 12 74.5 12Z" fill="#D9D9D9" fill-opacity="0.35"/>
</g>
<g filter="url(#filter2_d_9_179)">
<path d="M74.5 12C94.9078 12 113.03 21.7821 124.437 36.9121L28 116C22.5 111 12.5 96.5 12 74.5C12 39.9822 39.9822 12 74.5 12Z" fill="white" fill-opacity="0.55"/>
<path d="M74.5 12.75C94.4035 12.75 112.106 22.1675 123.399 36.791L28.0332 115.002C22.6782 109.834 13.5314 96.0965 12.7803 75.499L12.75 74.4834C12.759 40.3874 40.402 12.75 74.5 12.75Z" stroke="url(#paint0_linear_9_179)" stroke-opacity="0.25" stroke-width="1.5"/>
</g>
<g filter="url(#filter3_d_9_179)">
<path d="M74.5 12C94.9078 12 113.03 21.7821 124.437 36.9121L18.5 102.5C16.5 98.5 12 89 12 74.5C12 39.9822 39.9822 12 74.5 12Z" fill="white"/>
</g>
<defs>
<filter id="filter0_d_9_179" x="2" y="4" width="132.437" height="144.543" filterUnits="userSpaceOnUse" color-interpolation-filters="sRGB">
<feFlood flood-opacity="0" result="BackgroundImageFix"/>
<feColorMatrix in="SourceAlpha" type="matrix" values="0 0 0 0 0 0 0 0 0 0 0 0 0 0 0 0 0 0 127 0" result="hardAlpha"/>
<feOffset dy="2"/>
<feGaussianBlur stdDeviation="5"/>
<feColorMatrix type="matrix" values="0 0 0 0 0 0 0 0 0 0 0 0 0 0 0 0 0 0 0.3 0"/>
<feBlend mode="normal" in2="BackgroundImageFix" result="effect1_dropShadow_9_179"/>
<feBlend mode="normal" in="SourceGraphic" in2="effect1_dropShadow_9_179" result="shape"/>
</filter>
<filter id="filter1_d_9_179" x="2" y="4" width="132.437" height="136.5" filterUnits="userSpaceOnUse" color-interpolation-filters="sRGB">
<feFlood flood-opacity="0" result="BackgroundImageFix"/>
<feColorMatrix in="SourceAlpha" type="matrix" values="0 0 0 0 0 0 0 0 0 0 0 0 0 0 0 0 0 0 127 0" result="hardAlpha"/>
<feOffset dy="2"/>
<feGaussianBlur stdDeviation="5"/>
<feColorMatrix type="matrix" values="0 0 0 0 0 0 0 0 0 0 0 0 0 0 0 0 0 0 0.3 0"/>
<feBlend mode="normal" in2="BackgroundImageFix" result="effect1_dropShadow_9_179"/>
<feBlend mode="normal" in="SourceGraphic" in2="effect1_dropShadow_9_179" result="shape"/>
</filter>
<filter id="filter2_d_9_179" x="2" y="4" width="132.437" height="124" filterUnits="userSpaceOnUse" color-interpolation-filters="sRGB">
<feFlood flood-opacity="0" result="BackgroundImageFix"/>
<feColorMatrix in="SourceAlpha" type="matrix" values="0 0 0 0 0 0 0 0 0 0 0 0 0 0 0 0 0 0 127 0" result="hardAlpha"/>
<feOffset dy="2"/>
<feGaussianBlur stdDeviation="5"/>
<feColorMatrix type="matrix" values="0 0 0 0 0 0 0 0 0 0 0 0 0 0 0 0 0 0 0.3 0"/>
<feBlend mode="normal" in2="BackgroundImageFix" result="effect1_dropShadow_9_179"/>
<feBlend mode="normal" in="SourceGraphic" in2="effect1_dropShadow_9_179" result="shape"/>
</filter>
<filter id="filter3_d_9_179" x="2" y="4" width="132.437" height="110.5" filterUnits="userSpaceOnUse" color-interpolation-filters="sRGB">
<feFlood flood-opacity="0" result="BackgroundImageFix"/>
<feColorMatrix in="SourceAlpha" type="matrix" values="0 0 0 0 0 0 0 0 0 0 0 0 0 0 0 0 0 0 127 0" result="hardAlpha"/>
<feOffset dy="2"/>
<feGaussianBlur stdDeviation="5"/>
<feColorMatrix type="matrix" values="0 0 0 0 0 0 0 0 0 0 0 0 0 0 0 0 0 0 0.3 0"/>
<feBlend mode="normal" in2="BackgroundImageFix" result="effect1_dropShadow_9_179"/>
<feBlend mode="normal" in="SourceGraphic" in2="effect1_dropShadow_9_179" result="shape"/>
</filter>
<linearGradient id="paint0_linear_9_179" x1="37.5" y1="28.5013" x2="123.007" y2="116.001" gradientUnits="userSpaceOnUse">
<stop stop-color="white"/>
<stop offset="1" stop-color="#6D2407"/>
</linearGradient>
</defs>
</svg>
